<?xml version="1.0" encoding="utf-8"?>
<!-- Generator: Adobe Illustrator 28.0.0, SVG Export Plug-In . SVG Version: 6.00 Build 0)  -->
<svg version="1.1" id="图层_1" xmlns="http://www.w3.org/2000/svg" xmlns:xlink="http://www.w3.org/1999/xlink" x="0px" y="0px"
	 viewBox="0 0 16 16" style="enable-background:new 0 0 16 16;" xml:space="preserve">
<style type="text/css">
	.st0{fill:#F6F6F6;fill-opacity:0;}
	.st1{fill:#F6F6F6;}
	.st2{fill:#656565;}
	.st3{fill:#F3F3F3;}
	.st4{fill:#9B4F96;}
	.st5{fill:#AC162C;}
</style>
<g id="canvas">
	<path class="st0" d="M16,16H0V0h16V16z"/>
</g>
<g id="outline">
	<path class="st1" d="M16,15H0V1h16V15z"/>
</g>
<g id="iconBg">
	<path class="st2" d="M1,2v12h14V2H1z M14,13H2V5h12V13z"/>
</g>
<g id="iconFg">
	<path class="st3" d="M14,13H2V5h12V13z"/>
</g>
<path id="bg_00000001624512199252329450000018298476068574004926_" class="st1" d="M10,8H9.4H0.6H0v1v5v1h0.6h8.8H10v-1V9V8L10,8z"
	/>
<g id="PlusPlus">
	<path id="bg_00000044161445873165595210000017290530084875326596_" class="st1" d="M16,2h-1V1H8.5v1h-1v3h1v1H15V5h1V2z"/>
	<polygon id="PlusPlus_00000078020911481019103400000009080529915247694778_" class="st4" points="15,3 14,3 14,2 13,2 13,3 12,3 
		12,4 13,4 13,5 14,5 14,4 15,4 	"/>
	<polygon id="PlusPlus_00000071547756070304912970000013921659096700535229_" class="st4" points="11.5,3 10.5,3 10.5,2 9.5,2 
		9.5,3 8.5,3 8.5,4 9.5,4 9.5,5 10.5,5 10.5,4 11.5,4 	"/>
</g>
<path class="st5" d="M1,9v5h8V9H1z M3.9,13.1H3L1.9,9.9h1l0.6,1.8l0.6-1.8h1L3.9,13.1z M7.1,13.1l-0.7-0.8v0.8H5.6V9.9h0.8v0.6
	L7,9.9h1.1l-1.4,1.5l1.5,1.7H7.1z"/>
</svg>
